<?xml version="1.0" encoding="UTF-8" standalone="no"?>
<!-- Created with Inkscape (http://www.inkscape.org/) -->

<svg
   xmlns:dc="http://purl.org/dc/elements/1.1/"
   xmlns:cc="http://creativecommons.org/ns#"
   xmlns:rdf="http://www.w3.org/1999/02/22-rdf-syntax-ns#"
   xmlns:svg="http://www.w3.org/2000/svg"
   xmlns="http://www.w3.org/2000/svg"
   xmlns:sodipodi="http://sodipodi.sourceforge.net/DTD/sodipodi-0.dtd"
   xmlns:inkscape="http://www.inkscape.org/namespaces/inkscape"
   id="svg2"
   height="22.911669"
   width="22"
   version="1.1"
   inkscape:version="0.48.5 r10040"
   sodipodi:docname="icon_circle.svg">
  <defs
     id="defs10" />
  <sodipodi:namedview
     pagecolor="#ffffff"
     bordercolor="#666666"
     borderopacity="1"
     objecttolerance="10"
     gridtolerance="10"
     guidetolerance="10"
     inkscape:pageopacity="0"
     inkscape:pageshadow="2"
     inkscape:window-width="1920"
     inkscape:window-height="1027"
     id="namedview8"
     showgrid="false"
     fit-margin-top="1"
     fit-margin-right="1"
     fit-margin-bottom="1"
     fit-margin-left="1"
     inkscape:zoom="14.352473"
     inkscape:cx="8.8624813"
     inkscape:cy="17.139201"
     inkscape:window-x="-8"
     inkscape:window-y="-8"
     inkscape:window-maximized="1"
     inkscape:current-layer="layer1" />
  <metadata
     id="metadata7">
    <rdf:RDF>
      <cc:Work
         rdf:about="">
        <dc:format>image/svg+xml</dc:format>
        <dc:type
           rdf:resource="http://purl.org/dc/dcmitype/StillImage" />
        <dc:title />
      </cc:Work>
    </rdf:RDF>
  </metadata>
  <g
     id="layer1"
     transform="translate(-66.143,-374.47833)">
    <path
       style="fill:#ffffff"
       d="M 11 1.90625 C 5.48 1.90625 1 6.38625 1 11.90625 C 1 17.42625 5.48 21.90625 11 21.90625 C 16.53 21.90625 21 17.42625 21 11.90625 C 21 8.3676358 19.153505 5.2776045 16.375 3.5 A 1.5468108 1.5468108 0 0 1 16.40625 3.90625 A 1.5468108 1.5468108 0 0 1 15.5 5.3125 C 17.607868 6.7528396 19 9.15922 19 11.90625 C 19 16.32625 15.42 19.90625 11 19.90625 C 6.58 19.90625 3 16.32625 3 11.90625 C 3 7.48625 6.58 3.90625 11 3.90625 C 11.82875 3.90625 12.623374 4.0475928 13.375 4.28125 A 1.5468108 1.5468108 0 0 1 13.3125 3.90625 A 1.5468108 1.5468108 0 0 1 14.28125 2.46875 C 13.249558 2.1095832 12.15441 1.90625 11 1.90625 z "
       transform="translate(66.143,374.47833)"
       id="path3015" />
    <path
       style="fill:#ffffff;fill-rule:nonzero"
       d="M 14.59375 1 A 2.9357838 2.9357838 0 0 0 11.875 3.9375 A 2.9357838 2.9357838 0 0 0 17.75 3.9375 A 2.9357838 2.9357838 0 0 0 14.59375 1 z M 14.90625 2.34375 A 1.5468108 1.5468108 0 0 1 16.40625 3.90625 A 1.5468108 1.5468108 0 0 1 13.3125 3.90625 A 1.5468108 1.5468108 0 0 1 14.90625 2.34375 z "
       id="path3084"
       transform="translate(66.143,374.47833)" />
  </g>
</svg>
