<?xml version="1.0" encoding="UTF-8" standalone="no"?>
<svg
   xmlns:dc="http://purl.org/dc/elements/1.1/"
   xmlns:cc="http://creativecommons.org/ns#"
   xmlns:rdf="http://www.w3.org/1999/02/22-rdf-syntax-ns#"
   xmlns:svg="http://www.w3.org/2000/svg"
   xmlns="http://www.w3.org/2000/svg"
   xmlns:sodipodi="http://sodipodi.sourceforge.net/DTD/sodipodi-0.dtd"
   xmlns:inkscape="http://www.inkscape.org/namespaces/inkscape"
   fill="#000000"
   height="24"
   viewBox="0 0 24 24"
   width="24"
   id="svg2"
   version="1.1"
   inkscape:version="0.48.5 r10040"
   sodipodi:docname="icon_polygon.svg">
  <metadata
     id="metadata12">
    <rdf:RDF>
      <cc:Work
         rdf:about="">
        <dc:format>image/svg+xml</dc:format>
        <dc:type
           rdf:resource="http://purl.org/dc/dcmitype/StillImage" />
        <dc:title />
      </cc:Work>
    </rdf:RDF>
  </metadata>
  <defs
     id="defs10" />
  <sodipodi:namedview
     pagecolor="#ffffff"
     bordercolor="#666666"
     borderopacity="1"
     objecttolerance="10"
     gridtolerance="10"
     guidetolerance="10"
     inkscape:pageopacity="0"
     inkscape:pageshadow="2"
     inkscape:window-width="1920"
     inkscape:window-height="1027"
     id="namedview8"
     showgrid="false"
     inkscape:zoom="19.666667"
     inkscape:cx="20.316912"
     inkscape:cy="13.992232"
     inkscape:window-x="-8"
     inkscape:window-y="-8"
     inkscape:window-maximized="1"
     inkscape:current-layer="svg2" />
  <path
     d="m 20.966102,9.8983051 0,-6 -6,0 0,2 -8.5762715,-3.4576271 0,-2.00000003 -5.99999999,0 0,6.00000003 1.99999999,0 1.7288136,9.847458 -2,0 0,6 6,0 0,-2 L 17,21 l 0,2 6,0 0,-6 -2,0 -2.033898,-7.1016949 z M 2.3898305,2.440678 l 2,0 0,2 -2,0 z m 3.7288136,17.847458 -2,0 0,-2 2,0 z M 17,19 8.1186441,18.288136 l 0,-2 -2,0 -1.7288136,-9.847458 2,0 0,-2 8.5762715,3.4576271 0,2 2,0 L 19,17 17,17 z m 4,2 -2,0 0,-2 2,0 z m -4.033898,-13.1016949 0,-2 2,0 0,2 z"
     id="path4"
     inkscape:connector-curvature="0"
     sodipodi:nodetypes="cccccccccccccccccccccccccccccccccccccccccccccccccccccc"
     style="fill:#ffffff" />
  <path
     d="M0 0h24v24H0z"
     fill="none"
     id="path6" />
</svg>
