<?xml version="1.0" encoding="UTF-8" standalone="no"?>
<!-- Created with Inkscape (http://www.inkscape.org/) -->

<svg
   xmlns:dc="http://purl.org/dc/elements/1.1/"
   xmlns:cc="http://creativecommons.org/ns#"
   xmlns:rdf="http://www.w3.org/1999/02/22-rdf-syntax-ns#"
   xmlns:svg="http://www.w3.org/2000/svg"
   xmlns="http://www.w3.org/2000/svg"
   xmlns:sodipodi="http://sodipodi.sourceforge.net/DTD/sodipodi-0.dtd"
   xmlns:inkscape="http://www.inkscape.org/namespaces/inkscape"
   id="svg2"
   height="22"
   width="22"
   version="1.1"
   inkscape:version="0.48.5 r10040"
   sodipodi:docname="icon_point.svg">
  <defs
     id="defs9" />
  <sodipodi:namedview
     pagecolor="#ffffff"
     bordercolor="#666666"
     borderopacity="1"
     objecttolerance="10"
     gridtolerance="10"
     guidetolerance="10"
     inkscape:pageopacity="0"
     inkscape:pageshadow="2"
     inkscape:window-width="1920"
     inkscape:window-height="1027"
     id="namedview7"
     showgrid="false"
     fit-margin-top="1"
     fit-margin-left="1"
     fit-margin-right="1"
     fit-margin-bottom="1"
     inkscape:zoom="20.297462"
     inkscape:cx="23.391854"
     inkscape:cy="14.428023"
     inkscape:window-x="-8"
     inkscape:window-y="-8"
     inkscape:window-maximized="1"
     inkscape:current-layer="layer1" />
  <metadata
     id="metadata7">
    <rdf:RDF>
      <cc:Work
         rdf:about="">
        <dc:format>image/svg+xml</dc:format>
        <dc:type
           rdf:resource="http://purl.org/dc/dcmitype/StillImage" />
        <dc:title />
      </cc:Work>
    </rdf:RDF>
  </metadata>
  <g
     id="layer1"
     transform="translate(-8.185,-15.594)"
     style="fill:#000000">
    <path
       id="path3041"
       d="m 19.175,16.594 c -5.52,0 -9.99,4.48 -9.99,10 0,5.52 4.47,10 9.99,10 5.53,0 10.01,-4.48 10.01,-10 0,-5.52 -4.48,-10 -10.01,-10 z m 0.01,18 c -4.42,0 -8,-3.58 -8,-8 0,-4.42 3.58,-8 8,-8 4.42,0 8,3.58 8,8 0,4.42 -3.58,8 -8,8 z"
       inkscape:connector-curvature="0"
       style="fill:#ffffff" />
    <path
       id="path3043"
       d="m 469.37,468.92 a 10.402,10.402 0 1 1 -20.804,0 10.402,10.402 0 1 1 20.804,0 z"
       transform="matrix(0.68454936,0,0,0.68454936,-295.01082,-294.41735)"
       inkscape:connector-curvature="0"
       style="fill-rule:nonzero;fill:#ffffff" />
  </g>
</svg>
